<?xml version="1.0" encoding="utf-8"?>
<!-- Generator: Adobe Illustrator 25.0.1, SVG Export Plug-In . SVG Version: 6.00 Build 0)  -->
<svg version="1.1" id="Camada_1" xmlns="http://www.w3.org/2000/svg" xmlns:xlink="http://www.w3.org/1999/xlink" x="0px" y="0px"
	 viewBox="0 0 702 170.4" style="enable-background:new 0 0 702 170.4;" xml:space="preserve">
<style type="text/css">
	.st0{fill:#FFFFFF;}
</style>
<g id="Camada_2_1_">
	<g id="Layer_1">
		<path class="st0" d="M297.7,130.3c9,0,17.7-3.1,24.7-8.7c3.5-2.7,6.2-3.4,9.3,0l4.7,4.7c3.7,3.7,2.1,6.6,0,9
			c-9.9,10.1-27.2,14.8-41,14.8c-29.2,0-52.9-20-52.9-51.1c0.2-28.4,23.3-51.2,51.6-51.1c14.4,0.1,26.6,5.3,34.8,13.6
			c9.1,8.8,14.2,21.6,14.2,35.3c0,5.5-2.1,8-8,8h-64.4c-1.4,0-2.5,1.1-2.5,2.5c0,0.1,0,0.4,0,0.5
			C271.2,122.4,283.6,130.3,297.7,130.3 M271.2,88.8h43.7c1.4,0,2.5-1.1,2.5-2.5c0-0.2,0-0.4-0.1-0.6c-1-4.4-3.2-8.5-6.3-11.7
			c-4.2-4.7-10.4-7.2-17.9-7.2c-12.3,0-21.4,7.2-24.3,18.9c-0.4,1.4,0.5,2.7,1.9,3C270.8,88.8,271,88.8,271.2,88.8"/>
		<path class="st0" d="M458.2,21.4c0-9.2,7.5-16.7,16.7-16.7c9.2,0,16.7,7.5,16.7,16.7s-7.5,16.7-16.7,16.7
			C465.7,38.1,458.2,30.6,458.2,21.4L458.2,21.4 M462,139.9V55.1c0-4.7,2.7-7.3,7.3-7.3h11.3c4.7,0,7.2,2.7,7.2,7.3v84.7
			c0,4.7-2.5,7.6-7.2,7.6h-11.3C464.7,147.5,462,144.5,462,139.9"/>
		<path class="st0" d="M569.7,143.8c-5.5,3.9-13.2,6.2-21.8,6.2c-18.4,0-34.2-10.9-34.2-34.9V69.8c0-1.4-1.1-2.5-2.5-2.5H504
			c-4.1,0-7.3-3.4-7.3-7.3l0,0v-4.9c0-4,3.2-7.2,7.2-7.2l0,0h7.5c1.4,0,2.5-1.1,2.5-2.5V10.9c0-4.5,2.5-6.6,7.3-7.6l10.4-2.1
			c5.2-1.1,7.7,2.4,7.7,7.3v36.7c0,1.4,1.1,2.5,2.5,2.5h19.5c4,0,7.2,3.2,7.2,7.2l0,0v4.7c0,4.2-3.4,7.6-7.6,7.6h-19.2
			c-1.4,0-2.5,1.1-2.5,2.5v42.9c0,10.9,5.2,14.9,12.8,14.9c3.2-0.1,6.2-1.1,9-2.9c4.5-2.7,6.6-0.7,8.3,2.5l3.5,8.2
			C575,139.4,572.2,141.9,569.7,143.8"/>
		<path class="st0" d="M691,63l-6.5-1.6c-4.4-1.2-6.3,0.6-8.1,4.7c-1.1,2.7-2.5,5.5-4.1,8c-0.2,0.4-0.7,0.5-1.1,0.2
			c-0.1-0.1-0.2-0.1-0.2-0.2c-8.7-15.9-25.7-26.2-46.9-26.2c-30.7,0-53.2,22-53.2,51.1s22.5,51.1,53.2,51.1s53.1-22,53.1-51.1
			c0-0.4,0-0.9,0-1.2c8.5-7.2,15.9-16.8,18.4-26.9C696.3,67.6,696.1,64.4,691,63 M650.3,89.3c0.1,0.5-0.1,0.9-0.5,1.1c0,0,0,0-0.1,0
			c-10.4,2.4-21.4-0.7-28.5-10.9c-1.6-2.4-3-4.7-4.2-7.2c-0.2-0.4-0.1-0.9,0.4-1.1c0.1,0,0.1-0.1,0.2-0.1c2.2-0.5,4.5-0.9,6.7-0.9
			C636.3,69.9,646.9,77.7,650.3,89.3 M624.3,127.5c-16.2,0-27.6-12.1-27.6-28.6c0-2.5,0.2-5,0.9-7.3c0.1-0.5,0.6-0.7,1-0.6
			c0.2,0,0.4,0.1,0.5,0.4c11.9,16.9,30.2,23.5,48.5,20.5c0.5-0.1,0.9,0.2,1,0.6c0,0.1,0,0.4-0.1,0.5
			C643.8,122.1,634.3,127.7,624.3,127.5"/>
		<path class="st0" d="M151.3,47.8c-8,0-15.9,1.4-23.5,4.2c-3,1.2-5,3.5-4.6,7.1c0.1,1.1,0.4,2.1,0.7,3.2l1.2,3.4
			c1.9,4.7,5,6,9.2,4.4c4.9-1.7,9.9-2.6,15.2-2.6c13.4,0,21.6,7,21.6,18.3v1.6c0,1.4-1.1,2.5-2.5,2.5c-0.2,0-0.5,0-0.7-0.1
			c-7.1-2.6-14.6-4-22-4c-18.7,0-32.7,7.5-38.6,19.5l0,0c-5.7,9.5-14.9,16.3-25.6,19.2c-22.4,6-44.3-6.2-50.6-29.7s6.6-45,29-51
			c10.9-3,22.5-1.5,32.3,4c4.4,2.1,7.6,1.6,10.4-2.2l5.2-7.6c2.9-3.7,2-7.7-2.4-10.2c-14.7-9-33.1-11.8-51.9-6.8
			C17.1,30.6-4.4,65.4,5.3,101.6s45.6,55.6,82.3,45.8c8.2-2.1,15.9-5.7,22.8-10.7c6.5,8.3,17.9,13.3,32.2,13.3
			c17.4,0,26.2-7.3,29.3-7.3c2.7,0,4.1,3.9,8.6,4.6c0.5,0.1,1,0.1,1.5,0.1h6.2c4.7,0,7.2-2.7,7.2-7.6V88.5
			c0-28.7-19.4-40.8-43.9-40.8 M172,115c0,9.6-11.1,17.3-23.8,17.3c-11.4,0-19-5.8-19-14.6c0-9.3,8.2-15.5,20.4-15.5
			c8.7,0,16.9,3.1,21.9,5.5c0.2,0.1,0.5,0.4,0.5,0.7V115z"/>
		<path class="st0" d="M453,101.1c1.1-29.8-19.4-53.4-48.7-53.4c-9,0-17.7,2.4-25.2,7.1c-1.2,0.7-2.7,0.2-3.4-0.9
			c-0.2-0.4-0.4-0.7-0.4-1.2V16c0-5.1-2.5-8.3-7.7-7.2l-10.8,2c-4.9,1.1-7.3,3.1-7.3,7.6V140c0,4.1,3.4,7.3,7.3,7.3l0,0h6.5
			c0.1,0,0.2,0,0.4,0l0,0c6,0,6.6-4.9,10.6-4.9c4,0,11.8,7.2,29.8,7.3h0.2c0.9,0,1.6,0,2.5-0.1C432.1,148.5,452,126.8,453,101.1
			 M400.3,127.5c-14.8,0-26.4-10.3-26.6-28.6c-0.4-18.4,12.1-28.7,26.6-28.7c16.3,0,27,12.8,27,28.7S416.6,127.5,400.3,127.5"/>
		<path class="st0" d="M257.4,149c-9.8-3.9-26.2-21.3-26.2-48.7c0-1.2-0.1-2.4-0.1-3.5v-69c0-5.1-2.5-8.6-7.7-7.3l-10.4,2.1
			c-4.9,1-7.3,3.1-7.3,7.6v71.6c0,15,4.4,32.2,10.6,41.5c9.5,14.1,23.1,21.8,32.5,24.5c3,0.7,6.8,1.4,8.5-2.9l4-8
			C262.4,153.5,262.4,150.6,257.4,149"/>
		<path class="st0" d="M690.4,57.3c-5.2,0-9.6-4.2-9.6-9.6s4.2-9.6,9.6-9.6c5.2,0,9.6,4.2,9.6,9.6l0,0C700,53,695.8,57.2,690.4,57.3
			z M690.4,39.7c-4.5,0-8.1,3.6-8.1,8.1s3.6,8.1,8.1,8.1s8.1-3.6,8.1-8.1l0,0C698.5,43.3,694.9,39.7,690.4,39.7z"/>
		<path class="st0" d="M688.8,48.5V53h-1.7V42.3h3.7c1-0.1,2,0.2,2.7,0.9c0.6,0.6,1,1.4,1,2.2c0,0.5-0.1,1-0.4,1.5
			c-0.4,0.4-0.7,0.7-1.2,1c0.5,0.1,1,0.5,1.2,1c0.2,0.5,0.4,1,0.4,1.6v0.9c0,0.4,0,0.6,0.1,0.9c0,0.2,0.1,0.5,0.4,0.6V53h-1.9
			c-0.2-0.2-0.4-0.5-0.4-0.7c0-0.4-0.1-0.6-0.1-1v-0.9c0-0.5-0.1-1-0.5-1.2c-0.4-0.4-0.7-0.5-1.2-0.5L688.8,48.5z M688.8,47.1h1.7
			c0.5,0,1.1-0.1,1.6-0.4c0.4-0.4,0.5-0.7,0.5-1.2c0-0.5-0.1-0.9-0.5-1.2c-0.4-0.4-1-0.5-1.5-0.5h-1.9V47.1z"/>
	</g>
</g>
</svg>
